<?xml version="1.0" encoding="UTF-8"?>
<svg width="495" height="178" version="1.1" xmlns="http://www.w3.org/2000/svg">
 <style type="text/css"/>
 <g fill="#fff">
  <path d="m53.425 111.72c11.77 0 21.15-9.93 21.15-24.63.91-11.54-7.7-21.63-19.24-22.55-.63-.05-1.27-.07-1.91-.06-12.3 0-18.74 10.85-18.74 23.9-.01 14.89 8.81 23.34 18.74 23.34zm53.12 14.15c0 39.33-19.1 52.01-57.71 52.01-12.44.03-24.81-2.01-36.58-6.06l1.65-26.11c9.93 5.37 21.07 8.09 32.36 7.91 19.12 0 29.41-9 29.41-27.75v-5.16h-.37c-7.2 10.62-19.35 16.8-32.17 16.36-26.29 0-42.64-19.84-42.64-48.17 0-28.5 13.41-49.81 43.19-49.81 13.58.11 26.03 7.57 32.53 19.49h.38v-17.26h29.95v84.54z"/>
  <path d="m239.93 136.96h36.81l34.61-95.17h-32.15l-19.52 67.8h-.36l-19.37-67.8h-34.7z"/>
  <path d="m183.75 89.4c0-14.24-6.21-26.84-21.37-26.84s-21.36 12.6-21.36 26.84c0 14.06 6.21 26.66 21.36 26.66s21.37-12.6 21.37-26.66zm-76.69 0c0-31.59 23.91-49.83 55.32-49.83s55.32 18.26 55.32 49.83c0 31.41-23.91 49.66-55.32 49.66s-55.32-18.25-55.32-49.66z"/>
  <path d="m315.07 123.51c0 8.62-6.99 15.6-15.61 15.6s-15.6-6.99-15.6-15.61c0-8.61 6.98-15.59 15.6-15.6 8.61-.01 15.6 6.97 15.61 15.58z"/>
  <path d="m371.01 64.84c-12.05 0-20.09 10.58-20.09 24.83 0 13.88 9.14 24.3 20.09 24.3 12.42 0 19.91-10.42 19.91-25.58 0-12.59-7.12-23.55-19.91-23.55zm-52.96-64.84h33.07v54.07h.37c7.91-9.84 20.1-15.22 32.7-14.42 26.3 0 40.71 25.01 40.71 48.03 0 28.12-15.15 51.51-43.47 51.51-13.7.53-26.47-6.96-32.69-19.18h-.37v17h-30.34v-137h.02z"/>
  <path d="m492.83 68.13c-3.64-.91-7.39-1.28-11.14-1.09-15.34 0-23.91 11.14-23.91 29.77v40.19h-32.89v-95.21h29.98v17.54h.37c4.15-11.95 15.48-19.89 28.12-19.72 3.74.06 7.46.43 11.14 1.09z"/>
 </g>
</svg>
